<svg xmlns="http://www.w3.org/2000/svg" width="10.643" height="11.775" viewBox="0 0 10.643 11.775">
  <path id="Delete" d="M183.232,121.24v4.428l-.015.083-.049.081-.034.034-.049.032-.081.017h-.492l-.066-.017h-.034l-.081-.066-.049-.081-.017-.083V121.24l.017-.1.049-.083.081-.049.034-.017H183l.081.017.049.017.034.032.049.083Zm1.936,0v4.428l-.017.083-.049.081-.081.066-.083.017h-.507l-.083-.017-.081-.066-.051-.081-.015-.083V121.24l.015-.1.051-.083.081-.049.083-.017h.507l.083.017.081.049.049.083Zm1.936,0v4.428l-.017.083-.049.081-.081.066-.1.017h-.475l-.1-.017-.083-.066-.032-.032-.017-.049-.015-.083V121.24l.015-.1.017-.034.032-.049.083-.049.1-.017h.475l.1.017.081.049.049.083Zm.967,5.56v-7.266h-6.757v7.43l.034.147.066.115.049.1.049.049.032.017h6.282l.032-.017.049-.049.049-.1.066-.115.034-.147ZM183,118.55h3.378l-.36-.9-.066-.064-.083-.017H183.5l-.083.017-.049.064Zm7,.23v.492l-.017.1-.049.083-.081.064h-.049l-.066.017h-.7V126.8l-.017.147-.017.164-.015.147-.051.149-.032.115-.066.147-.081.115-.083.115-.081.1-.1.1-.115.1-.083.066-.115.034-.115.032-.115.032h-6.543l-.1-.032-.13-.032-.115-.034-.083-.066-.115-.081-.1-.1-.081-.1-.083-.113-.081-.115-.049-.132-.051-.147-.049-.132-.015-.147-.017-.149-.017-.147v-7.3h-.722l-.1-.017-.081-.064-.049-.083-.017-.1v-.492l.017-.083.049-.081.081-.049.1-.017h2.33l.524-1.28.066-.147.1-.115.115-.132.132-.1.147-.081.164-.066.132-.034.164-.015h2.411l.147.015.149.034.164.066.13.081.149.1.115.132.081.115.083.147.524,1.28h2.313l.115.017.081.049.049.081Z" transform="translate(-179.363 -116.582)" fill="#77878a" fill-rule="evenodd"/>
</svg>
