<svg xmlns="http://www.w3.org/2000/svg" width="33" height="33" viewBox="0 0 33 33">
  <g id="time_loop" transform="translate(-11123.3 -521.5)">
    <g id="toolbar_stop" transform="translate(-423 1303)">
      <g id="select" transform="translate(-47.7 386.5)">
        <rect id="Rectangle_678" data-name="Rectangle 678" width="33" height="33" transform="translate(11594 -1168)" fill="none"/>
      </g>
    </g>
    <path id="time_loop-2" data-name="time_loop" d="M596.545,199.169l-.027.131-.1.155-.131.078-.129.027H584.589l-.078-.027-.078-.027-.051-.051-.078-.1V199.3l-.027-.08V187.712h-2.443l-.155-.051-.1-.054-.129-.1-.1-.131-.078-.129-.053-.131V186.8l.053-.1.051-.131.078-.129,3.82-4.653.131-.1.155-.1.129-.054h.364l.131.054.155.1.129.1,3.823,4.653.078.129.051.131.054.1v.311l-.054.131-.078.129-.1.131-.129.1-.1.054-.155.051h-2.443v8.754h6.887l.182.027.078.027.024.051,1.923,2.339.078.131Zm7.667-5.068-.027.155-.024.1-.054.131-.1.129-3.82,4.653-.129.129-.155.078-.131.08h-.338l-.131-.08-.155-.078-.129-.129-3.82-4.653-.1-.129-.054-.131-.024-.1-.027-.155.027-.155.051-.129.078-.131.1-.129.129-.1.1-.054.131-.051h2.467V184.62h-6.911l-.078-.027-.078-.027-.054-.051-.078-.027-1.923-2.339-.051-.129-.027-.131.027-.129.078-.131.129-.1.131-.024h11.591l.078.024.051.027.054.051.051.078.027.027.024.078v.054l.027.1v11.406h2.416l.158.051.129.054.1.1.1.129.078.131.051.129Z" transform="translate(10547.184 347.442)" fill="#77878a" fill-rule="evenodd"/>
  </g>
</svg>
